# xmcd CD database file
#
# Track frame offsets:
#	182
#	15877
#	35472
#	47720
#	65922
#	79160
#	91922
#	108930
#	126240
#	149155
#	163070
#	176170
#	191277
#	206112
#	219777
#	230370
#
# Disc length: 3240 seconds
#
# Revision: 0
# Processed by: cddbd v1.5.1PL0 Copyright (c) Steve Scherf et al.
# Submitted via: CDex 1.51
#
DISCID=df0ca610
DTITLE=best hits - Jazz Vocal BEST SELECTION VOL.2
DYEAR=1900
DGENRE=Jazz
TTITLE0=Violets For Your Furs/Billie Holiday
TTITLE1=Youd Be So Nice To Come Home To/Helen Merrill
TTITLE2=Honey Suckle Rose/Eila Fizzgerald
TTITLE3=Lullaby Of Birdland/Sarah Vaughan
TTITLE4=I Fall In Love Too Easily/Anita O'Day
TTITLE5=Them There Eyes/Carmen McRae
TTITLE6=Sentimental Journey/Doris Day
TTITLE7=Imagination/Jo Stafford
TTITLE8=Willon Weep For Me/Sarah Vaughan
TTITLE9=Try A Little Tenderness/Chris Connor
TTITLE10=Love Letters/Julie London
TTITLE11=Youve Changed/Billie Holiday
TTITLE12=Tea For Two/Eila Fitzgerald
TTITLE13=Misty/Sarah Vaughan
TTITLE14=Give Me The Simplelife/Carmen McRae
TTITLE15=Cry Me A River/Julie London
EXTD=
EXTT0=
EXTT1=
EXTT2=
EXTT3=
EXTT4=
EXTT5=
EXTT6=
EXTT7=
EXTT8=
EXTT9=
EXTT10=
EXTT11=
EXTT12=
EXTT13=
EXTT14=
EXTT15=
PLAYORDER=
